<svg xmlns="http://www.w3.org/2000/svg" xmlns:svg="http://www.w3.org/2000/svg" id="svg6800" width="27" height="16" version="1.0" viewBox="0 0 27 200"><g id="layer4" transform="translate(0.5,-0.5)"><rect id="rect8767" style="fill:#bf0a30;fill-rule:evenodd;stroke-width:.932491" width="331.703" height="15.897" x="-155.16" y="182.817"/><rect id="rect8769" style="fill:#fff;fill-rule:evenodd;stroke-width:.932491" width="331.703" height="15.897" x="-155.16" y="166.92"/><rect id="rect8771" style="fill:#bf0a30;fill-rule:evenodd;stroke-width:.932491" width="331.703" height="15.897" x="-155.16" y="151.024"/><rect id="rect8773" style="fill:#fff;fill-rule:evenodd;stroke-width:.932491" width="331.703" height="15.897" x="-155.16" y="135.127"/><rect id="rect8775" style="fill:#bf0a30;fill-rule:evenodd;stroke-width:.932491" width="331.703" height="14.903" x="-155.16" y="120.224"/><rect id="rect8777" style="fill:#fff;fill-rule:evenodd;stroke-width:.932491" width="331.703" height="14.903" x="-155.16" y="105.321"/><rect id="rect8779" style="fill:#bf0a30;fill-rule:evenodd;stroke-width:.932491" width="331.703" height="14.903" x="-155.16" y="90.418"/><rect id="rect8781" style="fill:#fff;fill-rule:evenodd;stroke-width:.932491" width="331.703" height="14.903" x="-155.16" y="75.515"/><rect id="rect8783" style="fill:#bf0a30;fill-rule:evenodd;stroke-width:.932491" width="331.703" height="14.903" x="-155.16" y="60.612"/><rect id="rect8785" style="fill:#fff;fill-rule:evenodd;stroke-width:.932491" width="331.703" height="14.903" x="-155.16" y="45.709"/><rect id="rect8787" style="fill:#bf0a30;fill-rule:evenodd;stroke-width:.932491" width="331.703" height="14.903" x="-155.16" y="30.806"/><rect id="rect8791" style="fill:#fff;fill-rule:evenodd;stroke-width:.932491" width="331.703" height="14.903" x="-155.16" y="15.903"/><rect id="rect8793" style="fill:#bf0a30;fill-rule:evenodd;stroke-width:.932491" width="331.703" height="14.903" x="-155.16" y="1"/></g><g id="layer5" transform="translate(0.5,-0.5)"><rect id="rect8796" style="fill:#002868;fill-rule:evenodd;stroke-width:.932491" width="133.031" height="104.321" x="-155.16" y="1"/></g><g id="layer6" transform="translate(0.5,-0.5)"><path id="path8825" style="fill:#fff;fill-rule:evenodd" d="m 100.33333,146.66667 4.13886,-0.77244 1.27511,-4.01259 2.01361,3.69759 4.21023,-0.0273 -2.89438,3.05767 1.32696,3.99575 -3.80244,-1.80785 -3.39013,2.49677 0.54435,-4.17499 z" transform="matrix(0.91782693,0.08936923,-0.07520632,1.0906005,-230.6579,-75.910155)"/><path id="path8827" style="fill:#fff;fill-rule:evenodd" d="m 100.33333,146.66667 4.13886,-0.77244 1.27511,-4.01259 2.01361,3.69759 4.21023,-0.0273 -2.89438,3.05767 1.32696,3.99575 -3.80244,-1.80785 -3.39013,2.49677 0.54435,-4.17499 z" transform="matrix(0.91782693,0.08936923,-0.07520632,1.0906005,-208.7777,-75.910155)"/><path id="path8829" style="fill:#fff;fill-rule:evenodd" d="m 100.33333,146.66667 4.13886,-0.77244 1.27511,-4.01259 2.01361,3.69759 4.21023,-0.0273 -2.89438,3.05767 1.32696,3.99575 -3.80244,-1.80785 -3.39013,2.49677 0.54435,-4.17499 z" transform="matrix(0.91782693,0.08936923,-0.07520632,1.0906005,-186.0225,-75.910155)"/><path id="path8831" style="fill:#fff;fill-rule:evenodd" d="m 100.33333,146.66667 4.13886,-0.77244 1.27511,-4.01259 2.01361,3.69759 4.21023,-0.0273 -2.89438,3.05767 1.32696,3.99575 -3.80244,-1.80785 -3.39013,2.49677 0.54435,-4.17499 z" transform="matrix(0.91782693,0.08936923,-0.07520632,1.0906005,-164.1424,-75.910155)"/><path id="path8833" style="fill:#fff;fill-rule:evenodd" d="m 100.33333,146.66667 4.13886,-0.77244 1.27511,-4.01259 2.01361,3.69759 4.21023,-0.0273 -2.89438,3.05767 1.32696,3.99575 -3.80244,-1.80785 -3.39013,2.49677 0.54435,-4.17499 z" transform="matrix(0.91782693,0.08936923,-0.07520632,1.0906005,-142.2622,-75.910155)"/><path id="path8835" style="fill:#fff;fill-rule:evenodd" d="m 100.33333,146.66667 4.13886,-0.77244 1.27511,-4.01259 2.01361,3.69759 4.21023,-0.0273 -2.89438,3.05767 1.32696,3.99575 -3.80244,-1.80785 -3.39013,2.49677 0.54435,-4.17499 z" transform="matrix(0.91782693,0.08936923,-0.07520632,1.0906005,-119.5069,-75.910155)"/><path id="path8837" style="fill:#fff;fill-rule:evenodd" d="m 100.33333,146.66667 4.13886,-0.77244 1.27511,-4.01259 2.01361,3.69759 4.21023,-0.0273 -2.89438,3.05767 1.32696,3.99575 -3.80244,-1.80785 -3.39013,2.49677 0.54435,-4.17499 z" transform="matrix(0.91782693,0.08936923,-0.07520632,1.0906005,-219.2802,-85.845483)"/><path id="path8839" style="fill:#fff;fill-rule:evenodd" d="m 100.33333,146.66667 4.13886,-0.77244 1.27511,-4.01259 2.01361,3.69759 4.21023,-0.0273 -2.89438,3.05767 1.32696,3.99575 -3.80244,-1.80785 -3.39013,2.49677 0.54435,-4.17499 z" transform="matrix(0.91782693,0.08936923,-0.07520632,1.0906005,-230.6579,-96.774336)"/><path id="path8841" style="fill:#fff;fill-rule:evenodd" d="m 100.33333,146.66667 4.13886,-0.77244 1.27511,-4.01259 2.01361,3.69759 4.21023,-0.0273 -2.89438,3.05767 1.32696,3.99575 -3.80244,-1.80785 -3.39013,2.49677 0.54435,-4.17499 z" transform="matrix(0.91782693,0.08936923,-0.07520632,1.0906005,-219.2802,-106.70867)"/><path id="path8843" style="fill:#fff;fill-rule:evenodd" d="m 100.33333,146.66667 4.13886,-0.77244 1.27511,-4.01259 2.01361,3.69759 4.21023,-0.0273 -2.89438,3.05767 1.32696,3.99575 -3.80244,-1.80785 -3.39013,2.49677 0.54435,-4.17499 z" transform="matrix(0.91782693,0.08936923,-0.07520632,1.0906005,-230.6579,-117.63753)"/><path id="path8845" style="fill:#fff;fill-rule:evenodd" d="m 100.33333,146.66667 4.13886,-0.77244 1.27511,-4.01259 2.01361,3.69759 4.21023,-0.0273 -2.89438,3.05767 1.32696,3.99575 -3.80244,-1.80785 -3.39013,2.49677 0.54435,-4.17499 z" transform="matrix(0.91782693,0.08936923,-0.07520632,1.0906005,-219.2802,-127.57285)"/><path id="path8847" style="fill:#fff;fill-rule:evenodd" d="m 100.33333,146.66667 4.13886,-0.77244 1.27511,-4.01259 2.01361,3.69759 4.21023,-0.0273 -2.89438,3.05767 1.32696,3.99575 -3.80244,-1.80785 -3.39013,2.49677 0.54435,-4.17499 z" transform="matrix(0.91782693,0.08936923,-0.07520632,1.0906005,-230.6579,-138.5017)"/><path id="path8849" style="fill:#fff;fill-rule:evenodd" d="m 100.33333,146.66667 4.13886,-0.77244 1.27511,-4.01259 2.01361,3.69759 4.21023,-0.0273 -2.89438,3.05767 1.32696,3.99575 -3.80244,-1.80785 -3.39013,2.49677 0.54435,-4.17499 z" transform="matrix(0.91782693,0.08936923,-0.07520632,1.0906005,-219.2802,-148.43703)"/><path id="path8851" style="fill:#fff;fill-rule:evenodd" d="m 100.33333,146.66667 4.13886,-0.77244 1.27511,-4.01259 2.01361,3.69759 4.21023,-0.0273 -2.89438,3.05767 1.32696,3.99575 -3.80244,-1.80785 -3.39013,2.49677 0.54435,-4.17499 z" transform="matrix(0.91782693,0.08936923,-0.07520632,1.0906005,-230.6579,-159.36588)"/><path id="path8853" style="fill:#fff;fill-rule:evenodd" d="m 100.33333,146.66667 4.13886,-0.77244 1.27511,-4.01259 2.01361,3.69759 4.21023,-0.0273 -2.89438,3.05767 1.32696,3.99575 -3.80244,-1.80785 -3.39013,2.49677 0.54435,-4.17499 z" transform="matrix(0.91782693,0.08936923,-0.07520632,1.0906005,-197.4001,-85.845483)"/><path id="path8855" style="fill:#fff;fill-rule:evenodd" d="m 100.33333,146.66667 4.13886,-0.77244 1.27511,-4.01259 2.01361,3.69759 4.21023,-0.0273 -2.89438,3.05767 1.32696,3.99575 -3.80244,-1.80785 -3.39013,2.49677 0.54435,-4.17499 z" transform="matrix(0.91782693,0.08936923,-0.07520632,1.0906005,-208.7777,-96.774336)"/><path id="path8857" style="fill:#fff;fill-rule:evenodd" d="m 100.33333,146.66667 4.13886,-0.77244 1.27511,-4.01259 2.01361,3.69759 4.21023,-0.0273 -2.89438,3.05767 1.32696,3.99575 -3.80244,-1.80785 -3.39013,2.49677 0.54435,-4.17499 z" transform="matrix(0.91782693,0.08936923,-0.07520632,1.0906005,-197.4001,-106.70867)"/><path id="path8859" style="fill:#fff;fill-rule:evenodd" d="m 100.33333,146.66667 4.13886,-0.77244 1.27511,-4.01259 2.01361,3.69759 4.21023,-0.0273 -2.89438,3.05767 1.32696,3.99575 -3.80244,-1.80785 -3.39013,2.49677 0.54435,-4.17499 z" transform="matrix(0.91782693,0.08936923,-0.07520632,1.0906005,-208.7777,-117.63753)"/><path id="path8861" style="fill:#fff;fill-rule:evenodd" d="m 100.33333,146.66667 4.13886,-0.77244 1.27511,-4.01259 2.01361,3.69759 4.21023,-0.0273 -2.89438,3.05767 1.32696,3.99575 -3.80244,-1.80785 -3.39013,2.49677 0.54435,-4.17499 z" transform="matrix(0.91782693,0.08936923,-0.07520632,1.0906005,-197.4001,-127.57285)"/><path id="path8863" style="fill:#fff;fill-rule:evenodd" d="m 100.33333,146.66667 4.13886,-0.77244 1.27511,-4.01259 2.01361,3.69759 4.21023,-0.0273 -2.89438,3.05767 1.32696,3.99575 -3.80244,-1.80785 -3.39013,2.49677 0.54435,-4.17499 z" transform="matrix(0.91782693,0.08936923,-0.07520632,1.0906005,-208.7777,-138.5017)"/><path id="path8865" style="fill:#fff;fill-rule:evenodd" d="m 100.33333,146.66667 4.13886,-0.77244 1.27511,-4.01259 2.01361,3.69759 4.21023,-0.0273 -2.89438,3.05767 1.32696,3.99575 -3.80244,-1.80785 -3.39013,2.49677 0.54435,-4.17499 z" transform="matrix(0.91782693,0.08936923,-0.07520632,1.0906005,-197.4001,-148.43703)"/><path id="path8867" style="fill:#fff;fill-rule:evenodd" d="m 100.33333,146.66667 4.13886,-0.77244 1.27511,-4.01259 2.01361,3.69759 4.21023,-0.0273 -2.89438,3.05767 1.32696,3.99575 -3.80244,-1.80785 -3.39013,2.49677 0.54435,-4.17499 z" transform="matrix(0.91782693,0.08936923,-0.07520632,1.0906005,-208.7777,-159.36588)"/><path id="path8869" style="fill:#fff;fill-rule:evenodd" d="m 100.33333,146.66667 4.13886,-0.77244 1.27511,-4.01259 2.01361,3.69759 4.21023,-0.0273 -2.89438,3.05767 1.32696,3.99575 -3.80244,-1.80785 -3.39013,2.49677 0.54435,-4.17499 z" transform="matrix(0.91782693,0.08936923,-0.07520632,1.0906005,-175.52,-85.845483)"/><path id="path8871" style="fill:#fff;fill-rule:evenodd" d="m 100.33333,146.66667 4.13886,-0.77244 1.27511,-4.01259 2.01361,3.69759 4.21023,-0.0273 -2.89438,3.05767 1.32696,3.99575 -3.80244,-1.80785 -3.39013,2.49677 0.54435,-4.17499 z" transform="matrix(0.91782693,0.08936923,-0.07520632,1.0906005,-186.0225,-96.774336)"/><path id="path8873" style="fill:#fff;fill-rule:evenodd" d="m 100.33333,146.66667 4.13886,-0.77244 1.27511,-4.01259 2.01361,3.69759 4.21023,-0.0273 -2.89438,3.05767 1.32696,3.99575 -3.80244,-1.80785 -3.39013,2.49677 0.54435,-4.17499 z" transform="matrix(0.91782693,0.08936923,-0.07520632,1.0906005,-142.2622,-96.774336)"/><path id="path8875" style="fill:#fff;fill-rule:evenodd" d="m 100.33333,146.66667 4.13886,-0.77244 1.27511,-4.01259 2.01361,3.69759 4.21023,-0.0273 -2.89438,3.05767 1.32696,3.99575 -3.80244,-1.80785 -3.39013,2.49677 0.54435,-4.17499 z" transform="matrix(0.91782693,0.08936923,-0.07520632,1.0906005,-164.1424,-96.774336)"/><path id="path8877" style="fill:#fff;fill-rule:evenodd" d="m 100.33333,146.66667 4.13886,-0.77244 1.27511,-4.01259 2.01361,3.69759 4.21023,-0.0273 -2.89438,3.05767 1.32696,3.99575 -3.80244,-1.80785 -3.39013,2.49677 0.54435,-4.17499 z" transform="matrix(0.91782693,0.08936923,-0.07520632,1.0906005,-130.8846,-85.845483)"/><path id="path8879" style="fill:#fff;fill-rule:evenodd" d="m 100.33333,146.66667 4.13886,-0.77244 1.27511,-4.01259 2.01361,3.69759 4.21023,-0.0273 -2.89438,3.05767 1.32696,3.99575 -3.80244,-1.80785 -3.39013,2.49677 0.54435,-4.17499 z" transform="matrix(0.91782693,0.08936923,-0.07520632,1.0906005,-152.765,-85.845483)"/><path id="path8881" style="fill:#fff;fill-rule:evenodd" d="m 100.33333,146.66667 4.13886,-0.77244 1.27511,-4.01259 2.01361,3.69759 4.21023,-0.0273 -2.89438,3.05767 1.32696,3.99575 -3.80244,-1.80785 -3.39013,2.49677 0.54435,-4.17499 z" transform="matrix(0.91782693,0.08936923,-0.07520632,1.0906005,-186.0225,-159.36588)"/><path id="path8883" style="fill:#fff;fill-rule:evenodd" d="m 100.33333,146.66667 4.13886,-0.77244 1.27511,-4.01259 2.01361,3.69759 4.21023,-0.0273 -2.89438,3.05767 1.32696,3.99575 -3.80244,-1.80785 -3.39013,2.49677 0.54435,-4.17499 z" transform="matrix(0.91782693,0.08936923,-0.07520632,1.0906005,-175.52,-148.43703)"/><path id="path8885" style="fill:#fff;fill-rule:evenodd" d="m 100.33333,146.66667 4.13886,-0.77244 1.27511,-4.01259 2.01361,3.69759 4.21023,-0.0273 -2.89438,3.05767 1.32696,3.99575 -3.80244,-1.80785 -3.39013,2.49677 0.54435,-4.17499 z" transform="matrix(0.91782693,0.08936923,-0.07520632,1.0906005,-186.0225,-138.5017)"/><path id="path8887" style="fill:#fff;fill-rule:evenodd" d="m 100.33333,146.66667 4.13886,-0.77244 1.27511,-4.01259 2.01361,3.69759 4.21023,-0.0273 -2.89438,3.05767 1.32696,3.99575 -3.80244,-1.80785 -3.39013,2.49677 0.54435,-4.17499 z" transform="matrix(0.91782693,0.08936923,-0.07520632,1.0906005,-175.52,-127.57285)"/><path id="path8889" style="fill:#fff;fill-rule:evenodd" d="m 100.33333,146.66667 4.13886,-0.77244 1.27511,-4.01259 2.01361,3.69759 4.21023,-0.0273 -2.89438,3.05767 1.32696,3.99575 -3.80244,-1.80785 -3.39013,2.49677 0.54435,-4.17499 z" transform="matrix(0.91782693,0.08936923,-0.07520632,1.0906005,-186.0225,-117.63753)"/><path id="path8891" style="fill:#fff;fill-rule:evenodd" d="m 100.33333,146.66667 4.13886,-0.77244 1.27511,-4.01259 2.01361,3.69759 4.21023,-0.0273 -2.89438,3.05767 1.32696,3.99575 -3.80244,-1.80785 -3.39013,2.49677 0.54435,-4.17499 z" transform="matrix(0.91782693,0.08936923,-0.07520632,1.0906005,-175.52,-106.70867)"/><path id="path8893" style="fill:#fff;fill-rule:evenodd" d="m 100.33333,146.66667 4.13886,-0.77244 1.27511,-4.01259 2.01361,3.69759 4.21023,-0.0273 -2.89438,3.05767 1.32696,3.99575 -3.80244,-1.80785 -3.39013,2.49677 0.54435,-4.17499 z" transform="matrix(0.91782693,0.08936923,-0.07520632,1.0906005,-119.5069,-96.774336)"/><path id="path8895" style="fill:#fff;fill-rule:evenodd" d="m 100.33333,146.66667 4.13886,-0.77244 1.27511,-4.01259 2.01361,3.69759 4.21023,-0.0273 -2.89438,3.05767 1.32696,3.99575 -3.80244,-1.80785 -3.39013,2.49677 0.54435,-4.17499 z" transform="matrix(0.91782693,0.08936923,-0.07520632,1.0906005,-164.1424,-117.63753)"/><path id="path8897" style="fill:#fff;fill-rule:evenodd" d="m 100.33333,146.66667 4.13886,-0.77244 1.27511,-4.01259 2.01361,3.69759 4.21023,-0.0273 -2.89438,3.05767 1.32696,3.99575 -3.80244,-1.80785 -3.39013,2.49677 0.54435,-4.17499 z" transform="matrix(0.91782693,0.08936923,-0.07520632,1.0906005,-164.1424,-159.36588)"/><path id="path8899" style="fill:#fff;fill-rule:evenodd" d="m 100.33333,146.66667 4.13886,-0.77244 1.27511,-4.01259 2.01361,3.69759 4.21023,-0.0273 -2.89438,3.05767 1.32696,3.99575 -3.80244,-1.80785 -3.39013,2.49677 0.54435,-4.17499 z" transform="matrix(0.91782693,0.08936923,-0.07520632,1.0906005,-164.1424,-138.5017)"/><path id="path8901" style="fill:#fff;fill-rule:evenodd" d="m 100.33333,146.66667 4.13886,-0.77244 1.27511,-4.01259 2.01361,3.69759 4.21023,-0.0273 -2.89438,3.05767 1.32696,3.99575 -3.80244,-1.80785 -3.39013,2.49677 0.54435,-4.17499 z" transform="matrix(0.91782693,0.08936923,-0.07520632,1.0906005,-130.8846,-106.70867)"/><path id="path8903" style="fill:#fff;fill-rule:evenodd" d="m 100.33333,146.66667 4.13886,-0.77244 1.27511,-4.01259 2.01361,3.69759 4.21023,-0.0273 -2.89438,3.05767 1.32696,3.99575 -3.80244,-1.80785 -3.39013,2.49677 0.54435,-4.17499 z" transform="matrix(0.91782693,0.08936923,-0.07520632,1.0906005,-152.765,-106.70867)"/><path id="path8905" style="fill:#fff;fill-rule:evenodd" d="m 100.33333,146.66667 4.13886,-0.77244 1.27511,-4.01259 2.01361,3.69759 4.21023,-0.0273 -2.89438,3.05767 1.32696,3.99575 -3.80244,-1.80785 -3.39013,2.49677 0.54435,-4.17499 z" transform="matrix(0.91782693,0.08936923,-0.07520632,1.0906005,-152.765,-148.43703)"/><path id="path8907" style="fill:#fff;fill-rule:evenodd" d="m 100.33333,146.66667 4.13886,-0.77244 1.27511,-4.01259 2.01361,3.69759 4.21023,-0.0273 -2.89438,3.05767 1.32696,3.99575 -3.80244,-1.80785 -3.39013,2.49677 0.54435,-4.17499 z" transform="matrix(0.91782693,0.08936923,-0.07520632,1.0906005,-152.765,-127.57285)"/><path id="path8909" style="fill:#fff;fill-rule:evenodd" d="m 100.33333,146.66667 4.13886,-0.77244 1.27511,-4.01259 2.01361,3.69759 4.21023,-0.0273 -2.89438,3.05767 1.32696,3.99575 -3.80244,-1.80785 -3.39013,2.49677 0.54435,-4.17499 z" transform="matrix(0.91782693,0.08936923,-0.07520632,1.0906005,-119.5069,-117.63753)"/><path id="path8911" style="fill:#fff;fill-rule:evenodd" d="m 100.33333,146.66667 4.13886,-0.77244 1.27511,-4.01259 2.01361,3.69759 4.21023,-0.0273 -2.89438,3.05767 1.32696,3.99575 -3.80244,-1.80785 -3.39013,2.49677 0.54435,-4.17499 z" transform="matrix(0.91782693,0.08936923,-0.07520632,1.0906005,-142.2622,-117.63753)"/><path id="path8913" style="fill:#fff;fill-rule:evenodd" d="m 100.33333,146.66667 4.13886,-0.77244 1.27511,-4.01259 2.01361,3.69759 4.21023,-0.0273 -2.89438,3.05767 1.32696,3.99575 -3.80244,-1.80785 -3.39013,2.49677 0.54435,-4.17499 z" transform="matrix(0.91782693,0.08936923,-0.07520632,1.0906005,-142.2622,-159.36588)"/><path id="path8915" style="fill:#fff;fill-rule:evenodd" d="m 100.33333,146.66667 4.13886,-0.77244 1.27511,-4.01259 2.01361,3.69759 4.21023,-0.0273 -2.89438,3.05767 1.32696,3.99575 -3.80244,-1.80785 -3.39013,2.49677 0.54435,-4.17499 z" transform="matrix(0.91782693,0.08936923,-0.07520632,1.0906005,-142.2622,-138.5017)"/><path id="path8917" style="fill:#fff;fill-rule:evenodd" d="m 100.33333,146.66667 4.13886,-0.77244 1.27511,-4.01259 2.01361,3.69759 4.21023,-0.0273 -2.89438,3.05767 1.32696,3.99575 -3.80244,-1.80785 -3.39013,2.49677 0.54435,-4.17499 z" transform="matrix(0.91782693,0.08936923,-0.07520632,1.0906005,-119.5069,-159.36588)"/><path id="path8919" style="fill:#fff;fill-rule:evenodd" d="m 100.33333,146.66667 4.13886,-0.77244 1.27511,-4.01259 2.01361,3.69759 4.21023,-0.0273 -2.89438,3.05767 1.32696,3.99575 -3.80244,-1.80785 -3.39013,2.49677 0.54435,-4.17499 z" transform="matrix(0.91782693,0.08936923,-0.07520632,1.0906005,-130.8846,-148.43703)"/><path id="path8921" style="fill:#fff;fill-rule:evenodd" d="m 100.33333,146.66667 4.13886,-0.77244 1.27511,-4.01259 2.01361,3.69759 4.21023,-0.0273 -2.89438,3.05767 1.32696,3.99575 -3.80244,-1.80785 -3.39013,2.49677 0.54435,-4.17499 z" transform="matrix(0.91782693,0.08936923,-0.07520632,1.0906005,-119.5069,-138.5017)"/><path id="path8923" style="fill:#fff;fill-rule:evenodd" d="m 100.33333,146.66667 4.13886,-0.77244 1.27511,-4.01259 2.01361,3.69759 4.21023,-0.0273 -2.89438,3.05767 1.32696,3.99575 -3.80244,-1.80785 -3.39013,2.49677 0.54435,-4.17499 z" transform="matrix(0.91782693,0.08936923,-0.07520632,1.0906005,-130.8846,-127.57285)"/></g><g id="layer7" transform="translate(0.5,-0.5)"><path id="path3835" style="fill:#fff;stroke-width:.932491" d="M -155.5534,199.16023 177.9258,1.8347512 177.1469,199.60731 Z"/></g><g id="layer8" transform="translate(0.5,-0.5)"><path id="path3839" style="fill:#00247d;stroke-width:.932491" d="m 37.875,198.91184 -0.2797,-72.16921 138.8512,0.15784 0.1967,71.85326 z"/><path id="path3843" style="fill:#00247d;stroke-width:.932491" d="M 176.5511,1.3928279 63.6848,69.249104 h 112.665 z"/><path id="path3845" style="fill:#00247d;stroke-width:.932491" d="m -155.1601,198.93171 123.8764,-73.2134 17.3037,0.22321 -0.3933,73.21341 z"/></g><g id="layer9" transform="translate(0.5,-0.5)"><path id="path3847" style="fill:#fff;stroke-width:.932491" d="m 177.2863,179.04119 -0.3596,19.41164 -28.9929,2.04717 -113.794,-67.76189 1.298,-9.45366 50.4713,1.56253 z"/><path id="path3855" style="fill:#fff;stroke-width:.932491" d="M 177.5314,0.5 60.7353,71.034837 96.9154,71.927685 176.9432,23.713547 Z"/><path id="path3859" style="fill:#fff;stroke-width:.932491" d="m -155.5534,198.26604 130.0467,-75.85619 13.331,0.57717 0.048,14.40325 -102.075,61.32082 z"/><path id="path4355" style="fill:#cf142b;stroke-width:.932491" d="m -155.75,198.49456 128.27,-75.04151 13.5,0.0541 -0.3933,7.79665 -113.2689,67.41117 z"/><path id="path4357" style="fill:#cf142b;stroke-width:.932491" d="m 53.2698,124.60555 25.1683,0.89285 98.3117,59.82059 -0.3932,12.94672 z"/></g><g id="layer3" transform="translate(0.5,-0.5)"><path id="path3058" style="fill:#cf142b;stroke-width:.932491" d="M 176.5161,115.91214 -15.0574,115.68893 48.4658,78.754368 176.5433,79.04296 Z"/><path id="path3060" d="m 27.9414,198.25611 0.3933,-106.834542 -33.1353,19.018202 0.068,88.22866 z" style="fill:#cf142b;stroke-width:.932491"/></g><metadata id="metadata329"/></svg>